<svg t="1664727166576" class="icon" viewBox="0 0 1024 1024" version="1.1" xmlns="http://www.w3.org/2000/svg" p-id="2169" width="200" height="200"><path d="M938.666667 244.053333l-196.053334-164.48-54.826666 65.28 196.053333 164.48L938.666667 244.053333zM336.213333 144.64l-54.826666-65.28L85.333333 243.84l54.826667 65.28 196.053333-164.48zM533.333333 341.333333h-64v256l202.453334 121.813334L704 666.453333l-170.666667-101.12V341.333333z m-21.546666-170.666666C299.52 170.666667 128 342.613333 128 554.666667s171.52 384 383.786667 384S896 766.72 896 554.666667 724.053333 170.666667 511.786667 170.666667zM512 853.333333c-164.906667 0-298.666667-133.76-298.666667-298.666666s133.76-298.666667 298.666667-298.666667 298.666667 133.76 298.666667 298.666667-133.546667 298.666667-298.666667 298.666666z" p-id="2170"></path></svg>
