<svg t="1664739028767" class="icon" viewBox="0 0 1302 1024" version="1.1" xmlns="http://www.w3.org/2000/svg" p-id="3078" width="200" height="200"><path d="M138.666667 896l1024 0 0 128L138.666667 1024 138.666667 896 138.666667 896z" p-id="3079"></path><path d="M522.666667 580.266667l640 0 0 128L522.666667 708.266667 522.666667 580.266667 522.666667 580.266667z" p-id="3080"></path><path d="M522.666667 324.266667l640 0 0 128L522.666667 452.266667 522.666667 324.266667 522.666667 324.266667z" p-id="3081"></path><path d="M138.666667 0l1024 0 0 128L138.666667 128 138.666667 0 138.666667 0z" p-id="3082"></path><path d="M138.666667 290.133333l256 256L138.666667 733.866667 138.666667 290.133333 138.666667 290.133333z" p-id="3083"></path></svg>
