<svg t="1664635034004" class="icon" viewBox="0 0 1024 1024" version="1.1" xmlns="http://www.w3.org/2000/svg" p-id="6171" width="400" height="400"><path d="M743.5909 166.9898c-7.3882-3.0464-19.7919-4.0448-27.5661-2.219L582.8874 196.0581c-7.7742 1.8268-14.1343 9.9011-14.1343 17.9436l0 175.481856 0 0-19.1365-8.0609c-7.3882-3.0464-19.7919-4.0458-27.5661-2.219l-133.1343 31.2873c-7.7732 1.8268-14.1343 9.9011-14.1343 17.9436l0 120.04352 0 0-37.6934-15.5945c-7.3871-3.0474-19.7919-4.0448-27.5651-2.218L176.3881 561.9538c-7.7732 1.8258-14.1343 9.9011-14.1343 17.9425l0 210.42688c0 8.0425 6.0324 17.1448 13.4042 20.2291l119.7138 50.0726c7.3718 3.0843 19.6516 3.6905 27.2886 1.3496l118.7512-36.4063c7.637-2.3409 13.8854-10.836 13.8854-18.8785l0-32.968704 0 0 52.6029 22.1164c7.3718 3.0833 19.6516 3.6905 27.2886 1.3486l118.7523-36.4063c7.637-2.3409 13.8854-10.836 13.8854-18.8795l0-19.163136 0 0 34.0449 14.1199c7.3718 3.0833 19.6516 3.6905 27.2886 1.3486l118.7543-36.4052c7.637-2.3419 13.8854-10.837 13.8854-18.8785L861.7994 230.367232c0-8.0425-6.0436-17.1151-13.4308-20.1615L743.5909 166.9898zM296.3026 831.6877c0 8.0425-6.0047 12.033-13.3427 8.8689l-90.8411-39.167c-7.339-3.1642-13.3427-12.3331-13.3427-20.3745L178.7761 602.330112c0-8.0415 6.0047-12.033 13.3437-8.8699l90.8401 39.1608c7.339 3.1631 13.3437 12.331 13.3437 20.3735L296.3036 831.68768zM404.8599 586.3311c-7.4557 2.2774-17.2728 5.2767-21.8163 6.6652s-14.5101 4.4329-22.1491 6.7656l-45.0365 13.7605c-7.639 2.3327-19.9178 1.7121-27.2855-1.3824l-83.3864-35.0065c-7.3687-3.0935-7.0359-7.1158 0.7383-8.9395l99.9066-23.4322c7.7742-1.8227 20.1769-0.8141 27.561 2.2405l27.9675 11.5743c7.3841 3.0556 17.1418 7.0953 21.6852 8.9754s14.3012 5.9177 21.6852 8.9743l0.2621 0.1075C412.374 579.6895 412.3156 584.0527 404.8599 586.3311zM508.8307 766.8992c0 8.0425-6.0037 12.033-13.3427 8.8699l-40.19-17.4572 0 0L455.298 596.269056c0-8.0415-6.0436-17.1151-13.4308-20.1615l-50.5631-20.9582 0 0L391.3041 450.859008c0-8.0425 6.0047-12.033 13.3427-8.8699l90.8411 39.167c7.339 3.1642 13.3427 12.3331 13.3427 20.3756L508.8306 766.8992zM599.167 440.4326c-7.639 2.3337-17.6067 5.3791-22.1512 6.7676-4.5445 1.3875-14.5121 4.4329-22.1512 6.7666l-26.4806 8.0896c-7.639 2.3337-19.9178 1.7121-27.2855-1.3804l-83.3853-35.0024c-7.3687-3.0935-7.0359-7.1158 0.7383-8.9385l99.9086-23.4363c7.7742-1.8237 20.1759-0.8151 27.5599 2.2405l9.4085 3.8932c7.3841 3.0556 17.1428 7.0943 21.6873 8.9754 4.5445 1.8801 14.3032 5.9187 21.6873 8.9743l18.816 7.7865c7.3841 3.0556 7.1752 7.465-0.4639 9.7987L599.167 440.4326zM702.8029 707.9209c0 8.0425-6.0037 12.032-13.3427 8.8689l-21.633-9.1628 0 0L667.8272 444.797952c0-8.0425-6.0436-17.1141-13.4318-20.1615L585.2774 396.117l0 0L585.2774 236.427264c0-8.0425 6.0037-12.033 13.3427-8.8689l90.839 39.1629c7.339 3.1642 13.3427 12.332 13.3427 20.3745L702.8018 707.920896zM722.3562 247.6206c-7.639 2.3347-19.9178 1.7132-27.2855-1.3804l-83.3853-35.0013c-7.3677-3.0935-7.0359-7.1158 0.7383-8.9395l99.9076-23.4322c7.7742-1.8237 20.1759-0.8151 27.5599 2.2395l71.6001 29.6274c7.3841 3.0556 7.1752 7.465-0.4639 9.7987L722.3562 247.6206z" p-id="6172" fill="#ffffff"></path></svg>
